# xmcd CD database file
#
# Track frame offsets:
#	150
#	20668
#	38452
#	60272
#	74890
#	94819
#	101321
#	124890
#	133437
#	152530
#	170153
#	193457
#	211815
#	219073
#	234533
#	259715
#
# Disc length: 3573 seconds
#
# Revision: 2
# Processed by: cddbd v1.5.1PL0 Copyright (c) Steve Scherf et al.
# Submitted via: CDex 1.51
#
DISCID=e70df310
DTITLE=Rilke Project - Überfließende Himmel
DYEAR=2002
DGENRE=New Age
TTITLE0=O Gäbs doch Sterne - Katja Riemann
TTITLE1=Das Karussell - Heino Ferch
TTITLE2=Ist es möglich - Wolfgang Niedecken and Xavier Naidoo
TTITLE3=Vor lauter Lauschen und staunen sei still - Babara Sukowa
TTITLE4=Herbsttag - Gottfried John
TTITLE5=Rosennacht - Hannelore Elsner
TTITLE6=Ich will Du sein - Ben Becker
TTITLE7=Mein Leben ist wie leise See - Jürgen Prochnow
TTITLE8=Aus dem Umkreis: Nächte - Barbara Sukowa
TTITLE9=Schlaflied - Heino Ferch 
TTITLE10=Du sanftes Gesetz - Xavier Naidoo
TTITLE11=Natur ist glücklich - Jessica Schwarz
TTITLE12=Abschied - Ben Becker
TTITLE13=Zwischen Tag und Traum - Sir Peter Ustinov
TTITLE14=Überfließende Himmel  - Hannelore Elsner and Vesselina Kasarova
TTITLE15=Wenn es nur einmal so ganz stille wäre - Gottfried John
EXTD=YEAR: 2002
EXTT0=
EXTT1=
EXTT2=
EXTT3=
EXTT4=
EXTT5=
EXTT6=
EXTT7=
EXTT8=
EXTT9=
EXTT10=
EXTT11=
EXTT12=
EXTT13=
EXTT14=
EXTT15=
PLAYORDER=
